<mxfile host="app.diagrams.net" modified="2023-07-16T14:59:30.826Z" agent="Mozilla/5.0 (Windows NT 10.0; Win64; x64) AppleWebKit/537.36 (KHTML, like Gecko) Chrome/114.0.0.0 Safari/537.36" etag="dwZnyiHpXL9GdH6tJ21e" version="21.6.1" type="device">
  <diagram name="Page-1" id="nw_1A5zivD6kW5dbQdMw">
    <mxGraphModel dx="814" dy="394" grid="1" gridSize="10" guides="1" tooltips="1" connect="1" arrows="1" fold="1" page="1" pageScale="1" pageWidth="850" pageHeight="1100" math="1" shadow="0">
      <root>
        <mxCell id="0" />
        <mxCell id="1" parent="0" />
        <mxCell id="7LUkmrRi89mdkGOSYkpb-2" value="\(X_2\)" style="text;html=1;strokeColor=none;fillColor=none;align=center;verticalAlign=middle;whiteSpace=wrap;rounded=0;" vertex="1" parent="1">
          <mxGeometry y="73" width="60" height="30" as="geometry" />
        </mxCell>
        <mxCell id="7LUkmrRi89mdkGOSYkpb-3" value="\(X_1\)" style="text;html=1;strokeColor=none;fillColor=none;align=center;verticalAlign=middle;whiteSpace=wrap;rounded=0;" vertex="1" parent="1">
          <mxGeometry x="355" y="244" width="60" height="30" as="geometry" />
        </mxCell>
        <mxCell id="7LUkmrRi89mdkGOSYkpb-6" value="" style="endArrow=classic;html=1;rounded=0;entryX=0.5;entryY=1;entryDx=0;entryDy=0;" edge="1" parent="1">
          <mxGeometry width="50" height="50" relative="1" as="geometry">
            <mxPoint x="50" y="240" as="sourcePoint" />
            <mxPoint x="395" y="240" as="targetPoint" />
          </mxGeometry>
        </mxCell>
        <mxCell id="7LUkmrRi89mdkGOSYkpb-7" value="" style="endArrow=classic;html=1;rounded=0;" edge="1" parent="1">
          <mxGeometry width="50" height="50" relative="1" as="geometry">
            <mxPoint x="50" y="240" as="sourcePoint" />
            <mxPoint x="50" y="80" as="targetPoint" />
          </mxGeometry>
        </mxCell>
        <mxCell id="7LUkmrRi89mdkGOSYkpb-10" value="" style="ellipse;whiteSpace=wrap;html=1;strokeColor=none;fillColor=#0D0D0D;" vertex="1" parent="1">
          <mxGeometry x="220" y="170" width="5" height="5" as="geometry" />
        </mxCell>
        <mxCell id="7LUkmrRi89mdkGOSYkpb-11" value="" style="ellipse;whiteSpace=wrap;html=1;strokeColor=none;fillColor=#0D0D0D;" vertex="1" parent="1">
          <mxGeometry x="280" y="180" width="5" height="5" as="geometry" />
        </mxCell>
        <mxCell id="7LUkmrRi89mdkGOSYkpb-12" value="" style="ellipse;whiteSpace=wrap;html=1;strokeColor=none;fillColor=#0D0D0D;" vertex="1" parent="1">
          <mxGeometry x="290" y="190" width="5" height="5" as="geometry" />
        </mxCell>
        <mxCell id="7LUkmrRi89mdkGOSYkpb-14" value="" style="ellipse;whiteSpace=wrap;html=1;strokeColor=none;fillColor=#0D0D0D;" vertex="1" parent="1">
          <mxGeometry x="260" y="170" width="5" height="5" as="geometry" />
        </mxCell>
        <mxCell id="7LUkmrRi89mdkGOSYkpb-15" value="" style="ellipse;whiteSpace=wrap;html=1;strokeColor=none;fillColor=#0D0D0D;" vertex="1" parent="1">
          <mxGeometry x="328" y="196" width="5" height="5" as="geometry" />
        </mxCell>
        <mxCell id="7LUkmrRi89mdkGOSYkpb-16" value="" style="ellipse;whiteSpace=wrap;html=1;strokeColor=none;fillColor=#0D0D0D;" vertex="1" parent="1">
          <mxGeometry x="302" y="188" width="5" height="5" as="geometry" />
        </mxCell>
        <mxCell id="7LUkmrRi89mdkGOSYkpb-17" value="" style="ellipse;whiteSpace=wrap;html=1;strokeColor=none;fillColor=#0D0D0D;" vertex="1" parent="1">
          <mxGeometry x="100" y="120" width="5" height="5" as="geometry" />
        </mxCell>
        <mxCell id="7LUkmrRi89mdkGOSYkpb-18" value="" style="ellipse;whiteSpace=wrap;html=1;strokeColor=none;fillColor=#0D0D0D;" vertex="1" parent="1">
          <mxGeometry x="365" y="209" width="5" height="5" as="geometry" />
        </mxCell>
        <mxCell id="7LUkmrRi89mdkGOSYkpb-19" value="" style="ellipse;whiteSpace=wrap;html=1;strokeColor=none;fillColor=#0D0D0D;" vertex="1" parent="1">
          <mxGeometry x="171" y="153" width="5" height="5" as="geometry" />
        </mxCell>
        <mxCell id="7LUkmrRi89mdkGOSYkpb-20" value="" style="ellipse;whiteSpace=wrap;html=1;strokeColor=none;fillColor=#0D0D0D;" vertex="1" parent="1">
          <mxGeometry x="192" y="148" width="5" height="5" as="geometry" />
        </mxCell>
        <mxCell id="7LUkmrRi89mdkGOSYkpb-21" value="" style="ellipse;whiteSpace=wrap;html=1;strokeColor=none;fillColor=#0D0D0D;" vertex="1" parent="1">
          <mxGeometry x="125" y="135" width="5" height="5" as="geometry" />
        </mxCell>
        <mxCell id="7LUkmrRi89mdkGOSYkpb-22" value="" style="ellipse;whiteSpace=wrap;html=1;strokeColor=none;fillColor=#0D0D0D;" vertex="1" parent="1">
          <mxGeometry x="149" y="141" width="5" height="5" as="geometry" />
        </mxCell>
        <mxCell id="7LUkmrRi89mdkGOSYkpb-23" value="" style="ellipse;whiteSpace=wrap;html=1;strokeColor=none;fillColor=#0D0D0D;" vertex="1" parent="1">
          <mxGeometry x="232" y="163" width="5" height="5" as="geometry" />
        </mxCell>
        <mxCell id="7LUkmrRi89mdkGOSYkpb-24" value="" style="ellipse;whiteSpace=wrap;html=1;strokeColor=none;fillColor=#0D0D0D;" vertex="1" parent="1">
          <mxGeometry x="167" y="144" width="5" height="5" as="geometry" />
        </mxCell>
        <mxCell id="7LUkmrRi89mdkGOSYkpb-25" value="" style="ellipse;whiteSpace=wrap;html=1;strokeColor=none;fillColor=#0D0D0D;" vertex="1" parent="1">
          <mxGeometry x="206" y="158" width="5" height="5" as="geometry" />
        </mxCell>
        <mxCell id="7LUkmrRi89mdkGOSYkpb-26" value="" style="ellipse;whiteSpace=wrap;html=1;strokeColor=none;fillColor=#0D0D0D;" vertex="1" parent="1">
          <mxGeometry x="252" y="177" width="5" height="5" as="geometry" />
        </mxCell>
        <mxCell id="7LUkmrRi89mdkGOSYkpb-27" value="" style="ellipse;whiteSpace=wrap;html=1;strokeColor=none;fillColor=#0D0D0D;" vertex="1" parent="1">
          <mxGeometry x="79" y="121" width="5" height="5" as="geometry" />
        </mxCell>
        <mxCell id="7LUkmrRi89mdkGOSYkpb-28" value="" style="ellipse;whiteSpace=wrap;html=1;strokeColor=none;fillColor=#0D0D0D;" vertex="1" parent="1">
          <mxGeometry x="227" y="147" width="5" height="5" as="geometry" />
        </mxCell>
        <mxCell id="7LUkmrRi89mdkGOSYkpb-29" value="" style="ellipse;whiteSpace=wrap;html=1;strokeColor=none;fillColor=#0D0D0D;" vertex="1" parent="1">
          <mxGeometry x="256" y="158" width="5" height="5" as="geometry" />
        </mxCell>
        <mxCell id="7LUkmrRi89mdkGOSYkpb-30" value="" style="ellipse;whiteSpace=wrap;html=1;strokeColor=none;fillColor=#0D0D0D;" vertex="1" parent="1">
          <mxGeometry x="280" y="168" width="5" height="5" as="geometry" />
        </mxCell>
        <mxCell id="7LUkmrRi89mdkGOSYkpb-31" value="" style="ellipse;whiteSpace=wrap;html=1;strokeColor=none;fillColor=#0D0D0D;" vertex="1" parent="1">
          <mxGeometry x="232" y="181" width="5" height="5" as="geometry" />
        </mxCell>
        <mxCell id="7LUkmrRi89mdkGOSYkpb-32" value="" style="ellipse;whiteSpace=wrap;html=1;strokeColor=none;fillColor=#0D0D0D;" vertex="1" parent="1">
          <mxGeometry x="186" y="165" width="5" height="5" as="geometry" />
        </mxCell>
        <mxCell id="7LUkmrRi89mdkGOSYkpb-33" value="" style="ellipse;whiteSpace=wrap;html=1;strokeColor=none;fillColor=#0D0D0D;" vertex="1" parent="1">
          <mxGeometry x="203" y="142" width="5" height="5" as="geometry" />
        </mxCell>
        <mxCell id="7LUkmrRi89mdkGOSYkpb-34" value="" style="ellipse;whiteSpace=wrap;html=1;strokeColor=none;fillColor=#0D0D0D;" vertex="1" parent="1">
          <mxGeometry x="161" y="135" width="5" height="5" as="geometry" />
        </mxCell>
        <mxCell id="7LUkmrRi89mdkGOSYkpb-35" value="" style="ellipse;whiteSpace=wrap;html=1;strokeColor=none;fillColor=#0D0D0D;" vertex="1" parent="1">
          <mxGeometry x="121" y="125" width="5" height="5" as="geometry" />
        </mxCell>
        <mxCell id="7LUkmrRi89mdkGOSYkpb-36" value="" style="ellipse;whiteSpace=wrap;html=1;strokeColor=none;fillColor=#0D0D0D;" vertex="1" parent="1">
          <mxGeometry x="343" y="187" width="5" height="5" as="geometry" />
        </mxCell>
        <mxCell id="7LUkmrRi89mdkGOSYkpb-37" value="" style="endArrow=none;html=1;rounded=0;strokeWidth=2;" edge="1" parent="1">
          <mxGeometry width="50" height="50" relative="1" as="geometry">
            <mxPoint x="78" y="112" as="sourcePoint" />
            <mxPoint x="378" y="212" as="targetPoint" />
          </mxGeometry>
        </mxCell>
        <mxCell id="7LUkmrRi89mdkGOSYkpb-38" value="" style="endArrow=none;html=1;rounded=0;strokeWidth=2;dashed=1;" edge="1" parent="1">
          <mxGeometry width="50" height="50" relative="1" as="geometry">
            <mxPoint x="206" y="204" as="sourcePoint" />
            <mxPoint x="236" y="114" as="targetPoint" />
          </mxGeometry>
        </mxCell>
        <mxCell id="7LUkmrRi89mdkGOSYkpb-43" value="\(P_1\)" style="text;html=1;strokeColor=none;fillColor=none;align=center;verticalAlign=middle;whiteSpace=wrap;rounded=0;fontStyle=1" vertex="1" parent="1">
          <mxGeometry x="345" y="184" width="60" height="30" as="geometry" />
        </mxCell>
        <mxCell id="7LUkmrRi89mdkGOSYkpb-44" value="\(P_2\)" style="text;html=1;strokeColor=none;fillColor=none;align=center;verticalAlign=middle;whiteSpace=wrap;rounded=0;" vertex="1" parent="1">
          <mxGeometry x="215" y="104" width="60" height="30" as="geometry" />
        </mxCell>
      </root>
    </mxGraphModel>
  </diagram>
</mxfile>
